<?xml version="1.0" encoding="UTF-8" standalone="no"?>
<svg
   width="256px"
   height="256px"
   viewBox="0 0 256 256"
   id="Flat"
   version="1.1"
   sodipodi:docname="iconSolver.svg"
   inkscape:version="1.2.1 (9c6d41e410, 2022-07-14)"
   xmlns:inkscape="http://www.inkscape.org/namespaces/inkscape"
   xmlns:sodipodi="http://sodipodi.sourceforge.net/DTD/sodipodi-0.dtd"
   xmlns="http://www.w3.org/2000/svg"
   xmlns:svg="http://www.w3.org/2000/svg">
  <defs
     id="defs9371" />
  <sodipodi:namedview
     id="namedview9369"
     pagecolor="#ffffff"
     bordercolor="#000000"
     borderopacity="0.25"
     inkscape:showpageshadow="2"
     inkscape:pageopacity="0.0"
     inkscape:pagecheckerboard="0"
     inkscape:deskcolor="#d1d1d1"
     showgrid="false"
     inkscape:zoom="4.0117188"
     inkscape:cx="128"
     inkscape:cy="127.87537"
     inkscape:window-width="3840"
     inkscape:window-height="2097"
     inkscape:window-x="-8"
     inkscape:window-y="-8"
     inkscape:window-maximized="1"
     inkscape:current-layer="Flat" />
  <path
     d="M 236.45929,25.797486 H 19.540709 A 19.742463,18.60463 0 0 0 -0.17916261,44.380827 V 211.63089 A 19.742463,18.60463 0 0 0 19.540709,230.21423 H 236.45929 a 19.742463,18.60463 0 0 0 19.71987,-18.58334 V 44.380827 A 19.742463,18.60463 0 0 0 236.45929,25.797486 Z M 54.050483,90.839179 A 14.789903,13.937506 0 1 1 68.840386,76.901673 14.789903,13.937506 0 0 1 54.050483,90.839179 Z m 49.299677,0 a 14.789903,13.937506 0 1 1 14.7899,-13.937506 14.789903,13.937506 0 0 1 -14.7899,13.937506 z"
     id="path9366"
     style="stroke-width:1.19645" />
</svg>
