<?xml version="1.0" encoding="iso-8859-1"?>
<!-- Generator: Adobe Illustrator 19.0.0, SVG Export Plug-In . SVG Version: 6.00 Build 0)  -->
<svg version="1.1" id="Layer_1" xmlns="http://www.w3.org/2000/svg" xmlns:xlink="http://www.w3.org/1999/xlink" x="0px" y="0px"
	 viewBox="0 0 512 512" style="enable-background:new 0 0 512 512;" xml:space="preserve">
<g>
	<g>
		<path d="M436.062,153.301c-0.014,0.014-0.027,0.029-0.042,0.043C424.266,80.902,361.539,25.6,285.922,25.6
			c-83.99,0-152.083,68.221-152.083,152.381c0,31.584,9.592,60.925,26.021,85.259c-2.37,0.294-4.8,0.48-7.365,0.48
			c-83.152,0-141.488-51.2-141.488-51.2S0,229.101,0,266.971C0,388.157,98.054,486.4,219.005,486.4
			c120.957,0,219.005-98.243,219.005-219.429c0-3.71,0-9.918,0-17.437L512,201.834L436.062,153.301z M180.579,388.634
			c-58.765-2.064-109.501-41.558-127.322-96.626c32.312,12.934,66.165,19.71,99.237,19.71c4.346,0.002,8.686-0.275,13.269-0.843
			l39.989-4.957C221.166,312.486,232,327.787,232,345.573c0,23.755-19.326,43.082-43.082,43.082
			C188.918,388.654,182.022,388.635,180.579,388.634z M390.011,266.971h-0.002c0,45.808-17.798,88.869-50.118,121.251
			c-32.294,32.358-75.227,50.178-120.886,50.178c-8.581,0-17.013-0.646-25.258-1.875c47.986-2.52,86.253-42.349,86.253-90.952
			c0-41.406-27.784-76.426-65.682-87.451l-14.677-21.739c-11.646-17.251-17.803-37.446-17.803-58.402
			c0-57.555,46.691-104.381,104.083-104.381c57.395,0,104.09,46.826,104.09,104.381V266.971z"/>
	</g>
</g>
<g>
	<g>
		<circle cx="320" cy="168.416" r="16"/>
	</g>
</g>
<g>
</g>
<g>
</g>
<g>
</g>
<g>
</g>
<g>
</g>
<g>
</g>
<g>
</g>
<g>
</g>
<g>
</g>
<g>
</g>
<g>
</g>
<g>
</g>
<g>
</g>
<g>
</g>
<g>
</g>
</svg>
