<?xml version="1.0" encoding="iso-8859-1"?>
<!-- Generator: Adobe Illustrator 19.0.0, SVG Export Plug-In . SVG Version: 6.00 Build 0)  -->
<svg version="1.1" id="Layer_1" xmlns="http://www.w3.org/2000/svg" xmlns:xlink="http://www.w3.org/1999/xlink" x="0px" y="0px"
	 viewBox="0 0 280.027 280.027" style="enable-background:new 0 0 280.027 280.027;" xml:space="preserve">
<g>
	<path style="fill:#51BBA8;" d="M43.754,0h192.519c24.17,0,43.754,19.593,43.754,43.754v192.519
		c0,24.17-19.584,43.754-43.754,43.754H43.754C19.584,280.027,0,260.443,0,236.273V43.754C0,19.593,19.593,0,43.754,0z"/>
	<path style="fill:#475F6C;" d="M140.014,43.754c53.161,0,96.259,43.107,96.259,96.259c0,53.161-43.098,96.259-96.259,96.259
		s-96.259-43.098-96.259-96.259C43.754,86.861,86.852,43.754,140.014,43.754z"/>
	<path style="fill:#2B414D;" d="M140.014,87.509c29,0,52.505,23.514,52.505,52.505s-23.505,52.505-52.505,52.505
		c-28.992,0-52.505-23.514-52.505-52.505S111.022,87.509,140.014,87.509z"/>
	<path style="fill:#95A0A6;" d="M166.266,96.259c9.661,0,17.502,7.841,17.502,17.502c0,9.67-7.841,17.502-17.502,17.502
		s-17.502-7.832-17.502-17.502S156.605,96.259,166.266,96.259z"/>
	<path style="fill:#EBEBEB;" d="M140.014,43.754c-53.161,0-96.259,43.107-96.259,96.259c0,53.161,43.098,96.259,96.259,96.259
		s96.259-43.098,96.259-96.259C236.273,86.861,193.184,43.754,140.014,43.754z M140.014,223.147
		c-45.837,0-83.133-37.296-83.133-83.133s37.296-83.133,83.133-83.133s83.133,37.296,83.133,83.133S185.859,223.147,140.014,223.147
		z"/>
	<path style="fill:#459E8F;" d="M140.014,236.273c-53.161,0-96.259-43.098-96.259-96.259c0-24.354,9.118-46.528,24.03-63.479
		c-20.057,17.642-32.781,43.422-32.781,72.23c0,53.161,43.098,96.259,96.259,96.259c28.808,0,54.588-12.724,72.23-32.781
		C186.551,227.155,164.376,236.273,140.014,236.273z"/>
</g>
<g>
</g>
<g>
</g>
<g>
</g>
<g>
</g>
<g>
</g>
<g>
</g>
<g>
</g>
<g>
</g>
<g>
</g>
<g>
</g>
<g>
</g>
<g>
</g>
<g>
</g>
<g>
</g>
<g>
</g>
</svg>
