<?xml version="1.0" encoding="UTF-8" standalone="no"?>
<svg
   version="1.1"
   id="Layer_1"
   x="0px"
   y="0px"
   width="24px"
   height="24px"
   viewBox="0 0 24 24"
   enable-background="new 0 0 24 24"
   xml:space="preserve"
   sodipodi:docname="iconShortcut.svg"
   inkscape:version="1.2.1 (9c6d41e410, 2022-07-14)"
   xmlns:inkscape="http://www.inkscape.org/namespaces/inkscape"
   xmlns:sodipodi="http://sodipodi.sourceforge.net/DTD/sodipodi-0.dtd"
   xmlns="http://www.w3.org/2000/svg"
   xmlns:svg="http://www.w3.org/2000/svg"
   xmlns:ns="&amp;ns_sfw;"><defs
   id="defs7062" /><sodipodi:namedview
   id="namedview7060"
   pagecolor="#ffffff"
   bordercolor="#000000"
   borderopacity="0.25"
   inkscape:showpageshadow="2"
   inkscape:pageopacity="0.0"
   inkscape:pagecheckerboard="0"
   inkscape:deskcolor="#d1d1d1"
   showgrid="false"
   inkscape:zoom="19.729167"
   inkscape:cx="6.0063358"
   inkscape:cy="18.399155"
   inkscape:window-width="3840"
   inkscape:window-height="2097"
   inkscape:window-x="-8"
   inkscape:window-y="-8"
   inkscape:window-maximized="1"
   inkscape:current-layer="g7057" />
<metadata
   id="metadata7043">
	<ns:sfw>
		<ns:slices />
		<ns:sliceSourceBounds
   width="505"
   height="984"
   bottomLeftOrigin="true"
   x="0"
   y="-552" />
	</ns:sfw>
</metadata>
<g
   id="g7057"
   transform="matrix(0.56705385,0,0,0.70648999,10.441393,7.9884198)">
	
	
<path
   style="display:inline;fill:#ffffff;fill-opacity:1;stroke:none;stroke-width:3.15984;stroke-dasharray:none;stroke-opacity:1"
   d="m 1.162013,12.224818 8.6703897,7.676601 0.089392,-4.950332 5.0055863,0.502209 5.988826,2.008831 1.877095,0.358718 L 21.988833,15.022832 18.949727,11.579123 14.122912,9.7137805 9.9217946,8.9245974 9.8324027,4.6917038 Z"
   id="path7123" /><path
   d="m 23,21 c -0.4,0 -0.8,-0.2 -0.9,-0.6 0,0 -2,-4.4 -12.1,-4.4 -0.6,0 -1,-0.4 -1,-1 0,-0.6 0.4,-1 1,-1 6.1,0 9.6,1.5 11.6,2.9 C 19.5,10.1 10.4,10 10,10 9.4,10 9,9.6 9,9 9,8.4 9.4,8 10,8 c 0.1,0 14,0.1 14,12 0,0.5 -0.3,0.9 -0.8,1 -0.1,0 -0.1,0 -0.2,0 z"
   id="path7051"
   style="display:inline" /><path
   d="M 10,21 C 9.8,21 9.5,20.9 9.3,20.7 l -9,-8 C 0.1,12.6 0,12.3 0,12 0,11.7 0.1,11.4 0.3,11.3 l 9,-8 C 9.6,3 10,3 10.4,3.1 10.8,3.2 11,3.6 11,4 v 5 c 0,0.6 -0.4,1 -1,1 C 9.4,10 9,9.6 9,9 V 6.2 L 2.5,12 9,17.8 V 15 c 0,-0.6 0.4,-1 1,-1 0.6,0 1,0.4 1,1 v 5 c 0,0.4 -0.2,0.8 -0.6,0.9 C 10.3,21 10.1,21 10,21 Z"
   id="path7045" /></g>
</svg>
