<?xml version="1.0" ?><svg width="60px" height="60px" viewBox="0 0 60 60" xmlns="http://www.w3.org/2000/svg"><defs><style>
      .cls-1 {
        fill: #65727f;
        fill-rule: evenodd;
      }
    </style></defs><path class="cls-1" d="M660,810a30,30,0,1,1-30,30A30,30,0,0,1,660,810Zm-10.5,20h3a1.59,1.59,0,0,1,1.5,1.667v16.666A1.59,1.59,0,0,1,652.5,850h-3a1.59,1.59,0,0,1-1.5-1.667V831.667A1.59,1.59,0,0,1,649.5,830Zm22.486,18.741a1.209,1.209,0,0,1-.764,1.1,1.465,1.465,0,0,1-1.473-.082l-13.14-8.683a1.371,1.371,0,0,1,.009-2.311l13.176-8.55a1.454,1.454,0,0,1,1.47-.068,1.288,1.288,0,0,1,.755,1.165Z" id="previous" transform="translate(-630 -810)"/></svg>