<?xml version="1.0" encoding="iso-8859-1"?>
<!-- Generator: Adobe Illustrator 19.0.0, SVG Export Plug-In . SVG Version: 6.00 Build 0)  -->
<svg version="1.1" id="Layer_1" xmlns="http://www.w3.org/2000/svg" xmlns:xlink="http://www.w3.org/1999/xlink" x="0px" y="0px"
	 viewBox="0 0 280.028 280.028" style="enable-background:new 0 0 280.028 280.028;" xml:space="preserve">
<g>
	<path style="fill:#E4E7E7;" d="M140.014,0c77.331,0,140.014,62.691,140.014,140.014s-62.682,140.014-140.014,140.014
		C62.691,280.027,0,217.336,0,140.014S62.691,0,140.014,0z"/>
	<path style="fill:#868686;" d="M170.642,175.008c0,16.898-13.739,30.637-30.628,30.637s-30.628-13.739-30.628-30.628v-0.009H17.519
		c8.322,32.229,27.766,59.917,54.089,78.758h136.82c26.331-18.841,45.758-46.528,54.098-78.758H170.642z"/>
	<path style="fill:#B8BBBB;" d="M52.505,131.263c-4.83,0-8.751,3.92-8.751,8.751c0,4.83,3.92,8.751,8.751,8.751
		c4.839,0,8.751-3.92,8.751-8.751S57.344,131.263,52.505,131.263z M70.007,87.509c-4.83,0-8.751,3.92-8.751,8.751
		c0,4.83,3.92,8.751,8.751,8.751c4.839,0,8.751-3.92,8.751-8.751S74.846,87.509,70.007,87.509z M105.01,52.505
		c-4.83,0-8.751,3.92-8.751,8.751c0,4.839,3.92,8.751,8.751,8.751c4.839,0,8.751-3.912,8.751-8.751
		C113.761,56.426,109.849,52.505,105.01,52.505z M227.522,131.263c-4.83,0-8.751,3.92-8.751,8.751c0,4.83,3.92,8.751,8.751,8.751
		c4.839,0,8.751-3.92,8.751-8.751C236.273,135.183,232.361,131.263,227.522,131.263z M210.021,87.509
		c-4.83,0-8.751,3.92-8.751,8.751c0,4.83,3.92,8.751,8.751,8.751c4.839,0,8.751-3.92,8.751-8.751
		C218.771,91.429,214.86,87.509,210.021,87.509z M175.017,52.505c-4.83,0-8.751,3.92-8.751,8.751c0,4.839,3.92,8.751,8.751,8.751
		c4.839,0,8.751-3.912,8.751-8.751C183.768,56.426,179.856,52.505,175.017,52.505z"/>
	<path style="fill:#E2574C;" d="M140.014,52.505c9.661,0,17.502,112.842,17.502,122.512c0,9.661-7.841,17.502-17.502,17.502
		s-17.502-7.841-17.502-17.502C122.512,165.347,130.353,52.505,140.014,52.505z"/>
	<path style="fill:#36434F;" d="M140.014,0C62.691,0,0,62.691,0,140.014s62.691,140.014,140.014,140.014
		c77.331,0,140.014-62.691,140.014-140.014S217.345,0,140.014,0z M140.014,253.775c-62.726,0-113.761-51.035-113.761-113.761
		S77.288,26.253,140.014,26.253s113.761,51.035,113.761,113.761S202.74,253.775,140.014,253.775z"/>
</g>
<g>
</g>
<g>
</g>
<g>
</g>
<g>
</g>
<g>
</g>
<g>
</g>
<g>
</g>
<g>
</g>
<g>
</g>
<g>
</g>
<g>
</g>
<g>
</g>
<g>
</g>
<g>
</g>
<g>
</g>
</svg>
