<?xml version="1.0" encoding="UTF-8" standalone="no"?>
<!-- Generator: Adobe Illustrator 19.0.0, SVG Export Plug-In . SVG Version: 6.00 Build 0)  -->

<svg
   version="1.1"
   id="Layer_1"
   x="0px"
   y="0px"
   viewBox="0 0 280.027 280.027"
   style="enable-background:new 0 0 280.027 280.027;"
   xml:space="preserve"
   sodipodi:docname="iconCopySnapshot2.svg"
   inkscape:version="1.2.1 (9c6d41e410, 2022-07-14)"
   xmlns:inkscape="http://www.inkscape.org/namespaces/inkscape"
   xmlns:sodipodi="http://sodipodi.sourceforge.net/DTD/sodipodi-0.dtd"
   xmlns="http://www.w3.org/2000/svg"
   xmlns:svg="http://www.w3.org/2000/svg"><defs
   id="defs23393" /><sodipodi:namedview
   id="namedview23391"
   pagecolor="#ffffff"
   bordercolor="#000000"
   borderopacity="0.25"
   inkscape:showpageshadow="2"
   inkscape:pageopacity="0.0"
   inkscape:pagecheckerboard="0"
   inkscape:deskcolor="#d1d1d1"
   showgrid="false"
   inkscape:zoom="1.8337517"
   inkscape:cx="208.3161"
   inkscape:cy="166.32568"
   inkscape:window-width="1505"
   inkscape:window-height="1289"
   inkscape:window-x="314"
   inkscape:window-y="500"
   inkscape:window-maximized="0"
   inkscape:current-layer="Layer_1" />
<g
   id="g23358">
	<path
   style="fill:#51BBA8;"
   d="M43.754,0h192.519c24.17,0,43.754,19.593,43.754,43.754v192.519   c0,24.17-19.584,43.754-43.754,43.754H43.754C19.584,280.027,0,260.443,0,236.273V43.754C0,19.593,19.593,0,43.754,0z"
   id="path23346" />
	<path
   style="fill:#475F6C;"
   d="M140.014,43.754c53.161,0,96.259,43.107,96.259,96.259c0,53.161-43.098,96.259-96.259,96.259   s-96.259-43.098-96.259-96.259C43.754,86.861,86.852,43.754,140.014,43.754z"
   id="path23348" />
	<path
   style="fill:#2B414D;"
   d="M140.014,87.509c29,0,52.505,23.514,52.505,52.505s-23.505,52.505-52.505,52.505   c-28.992,0-52.505-23.514-52.505-52.505S111.022,87.509,140.014,87.509z"
   id="path23350" />
	<path
   style="fill:#95A0A6;"
   d="M166.266,96.259c9.661,0,17.502,7.841,17.502,17.502c0,9.67-7.841,17.502-17.502,17.502   s-17.502-7.832-17.502-17.502S156.605,96.259,166.266,96.259z"
   id="path23352" />
	<path
   style="fill:#EBEBEB;"
   d="M140.014,43.754c-53.161,0-96.259,43.107-96.259,96.259c0,53.161,43.098,96.259,96.259,96.259   s96.259-43.098,96.259-96.259C236.273,86.861,193.184,43.754,140.014,43.754z M140.014,223.147   c-45.837,0-83.133-37.296-83.133-83.133s37.296-83.133,83.133-83.133s83.133,37.296,83.133,83.133S185.859,223.147,140.014,223.147   z"
   id="path23354" />
	<path
   style="fill:#459E8F;"
   d="M140.014,236.273c-53.161,0-96.259-43.098-96.259-96.259c0-24.354,9.118-46.528,24.03-63.479   c-20.057,17.642-32.781,43.422-32.781,72.23c0,53.161,43.098,96.259,96.259,96.259c28.808,0,54.588-12.724,72.23-32.781   C186.551,227.155,164.376,236.273,140.014,236.273z"
   id="path23356" />
<g
   id="g14602"
   transform="matrix(2.1006015,0,0,1.6611271,115.27682,124.87627)"
   style="enable-background:new 0 0 280.027 280.027"><rect
     style="fill:#ffffff;fill-opacity:1;stroke-width:21.706"
     id="rect15136"
     width="408.80234"
     height="436.72055"
     x="602.23566"
     y="535.43134"
     transform="matrix(0.14240641,0,0,0.19086293,-67.381287,-95.331779)" /><path
     d="M 74.042,2.1813624 H 64.46 V 1.4110685 c 0,-1.9651942 -1.438,-3.5624703 -3.206,-3.5624703 h -6.435 v -4.7529244 c 0,-1.9651942 -1.438,-3.5624698 -3.205,-3.5624698 H 42.23 c -1.768,0 -3.206,1.5983871 -3.206,3.5624698 v 4.7518129 H 32.59 c -1.768,0 -3.206,1.5983876 -3.206,3.5624703 v 0.7702939 h -9.582 c -2.393,0 -4.339,2.1619359 -4.339,4.8240627 V 89.018937 c 0,2.661016 1.946,4.824063 4.339,4.824063 H 74.04 c 2.394,0 4.339,-2.163047 4.339,-4.824063 V 7.0054251 C 78.38,4.3432983 76.434,2.1813624 74.042,2.1813624 Z M 32.617,17.695059 h 28.61 c 1.709,0 3.102,-1.546145 3.102,-3.445759 v -3.821458 h 7.554 l 0.021,75.766684 -49.939,0.02334 V 10.431177 h 7.554 v 3.819234 c -0.002,1.898503 1.388,3.444648 3.098,3.444648 z"
     id="path14546"
     style="fill:#505050;fill-opacity:1;stroke-width:1.05429" /></g></g>















</svg>
