<?xml version="1.0" encoding="UTF-8" standalone="no"?>
<!-- Generator: Adobe Illustrator 19.0.0, SVG Export Plug-In . SVG Version: 6.00 Build 0)  -->

<svg
   version="1.1"
   id="Layer_1"
   x="0px"
   y="0px"
   viewBox="0 0 279.965 279.965"
   style="enable-background:new 0 0 279.965 279.965;"
   xml:space="preserve"
   sodipodi:docname="iconViewZoomIn.svg"
   inkscape:version="1.2.1 (9c6d41e410, 2022-07-14)"
   xmlns:inkscape="http://www.inkscape.org/namespaces/inkscape"
   xmlns:sodipodi="http://sodipodi.sourceforge.net/DTD/sodipodi-0.dtd"
   xmlns="http://www.w3.org/2000/svg"
   xmlns:svg="http://www.w3.org/2000/svg"><defs
   id="defs3331">














</defs><sodipodi:namedview
   id="namedview3329"
   pagecolor="#ffffff"
   bordercolor="#000000"
   borderopacity="0.25"
   inkscape:showpageshadow="2"
   inkscape:pageopacity="0.0"
   inkscape:pagecheckerboard="0"
   inkscape:deskcolor="#d1d1d1"
   showgrid="false"
   inkscape:zoom="3.6683157"
   inkscape:cx="131.80436"
   inkscape:cy="140.2551"
   inkscape:window-width="1412"
   inkscape:window-height="1230"
   inkscape:window-x="364"
   inkscape:window-y="364"
   inkscape:window-maximized="0"
   inkscape:current-layer="Layer_1" />
<g
   id="g3296">
	<path
   style="fill:#F4B459;"
   d="M272.698,272.712c-9.67,9.67-25.342,9.67-35.021,0l-99.243-99.235   c-9.661-9.67-9.661-25.351,0-35.038c9.67-9.661,25.36-9.661,35.03,0l99.235,99.252   C282.368,247.369,282.368,263.042,272.698,272.712z"
   id="path3286" />
	<polygon
   style="fill:#DBA250;"
   points="201.274,166.257 148.786,166.257 148.786,183.829 218.723,253.757 218.793,253.757    218.793,183.777  "
   id="polygon3288" />
	<path
   style="fill:#505050;fill-opacity:1"
   d="M118.15,0c65.246,0,118.137,52.881,118.137,118.137c0,65.238-52.899,118.119-118.137,118.119   c-65.246,0-118.137-52.881-118.137-118.119C0.013,52.881,52.903,0,118.15,0z"
   id="path3290" />
	<path
   style="fill:#F7F8F8;"
   d="M118.15,26.253c50.746,0,91.884,41.129,91.884,91.884c0,50.746-41.138,91.884-91.884,91.884   s-91.884-41.138-91.884-91.884S67.412,26.253,118.15,26.253z"
   id="path3292" />
	<path
   style="fill:#285050;fill-opacity:1"
   d="M83.146,104.993h21.877v-21.86c0-7.263,5.881-13.144,13.126-13.144s13.126,5.881,13.126,13.144   v21.86h21.877c7.246,0,13.126,5.881,13.126,13.126c0,7.263-5.881,13.135-13.126,13.135h-21.877v21.886   c0,7.246-5.881,13.118-13.126,13.118c-7.246,0-13.126-5.872-13.126-13.118v-21.886H83.146c-7.246,0-13.126-5.872-13.126-13.135   C70.02,110.873,75.901,104.993,83.146,104.993z"
   id="path3294" />
</g>















</svg>
