<?xml version="1.0" encoding="UTF-8" standalone="no"?>
<!-- Generator: Adobe Illustrator 19.0.0, SVG Export Plug-In . SVG Version: 6.00 Build 0)  -->

<svg
   version="1.1"
   id="Layer_1"
   x="0px"
   y="0px"
   viewBox="0 0 279.958 279.958"
   style="enable-background:new 0 0 279.958 279.958;"
   xml:space="preserve"
   sodipodi:docname="iconViewZoomOut.svg"
   inkscape:version="1.2.1 (9c6d41e410, 2022-07-14)"
   xmlns:inkscape="http://www.inkscape.org/namespaces/inkscape"
   xmlns:sodipodi="http://sodipodi.sourceforge.net/DTD/sodipodi-0.dtd"
   xmlns="http://www.w3.org/2000/svg"
   xmlns:svg="http://www.w3.org/2000/svg"><defs
   id="defs4277" /><sodipodi:namedview
   id="namedview4275"
   pagecolor="#ffffff"
   bordercolor="#000000"
   borderopacity="0.25"
   inkscape:showpageshadow="2"
   inkscape:pageopacity="0.0"
   inkscape:pagecheckerboard="0"
   inkscape:deskcolor="#d1d1d1"
   showgrid="false"
   inkscape:zoom="3.6684073"
   inkscape:cx="132.07367"
   inkscape:cy="139.979"
   inkscape:window-width="1412"
   inkscape:window-height="1230"
   inkscape:window-x="1553"
   inkscape:window-y="370"
   inkscape:window-maximized="0"
   inkscape:current-layer="Layer_1" />
<g
   id="g4242">
	<path
   style="fill:#F4B459;"
   d="M272.695,272.712c-9.67,9.661-25.342,9.661-35.021,0l-99.243-99.235   c-9.661-9.67-9.661-25.351,0-35.038c9.661-9.661,25.351-9.661,35.03,0l99.235,99.252   C282.365,247.369,282.365,263.042,272.695,272.712z"
   id="path4232" />
	<polygon
   style="fill:#DBA250;"
   points="201.271,166.249 148.783,166.249 148.783,183.829 218.72,253.757 218.79,253.757    218.79,183.768  "
   id="polygon4234" />
	<path
   style="fill:#505050;fill-opacity:1"
   d="M118.146,0c65.246,0,118.137,52.881,118.137,118.137c0,65.246-52.899,118.128-118.137,118.128   C52.9,236.264,0.01,183.383,0.01,118.137C0.01,52.881,52.9,0,118.146,0z"
   id="path4236" />
	<path
   style="fill:#F7F8F8;"
   d="M118.146,26.253c50.755,0,91.884,41.129,91.884,91.884c0,50.746-41.129,91.884-91.884,91.884   c-50.746,0-91.884-41.138-91.884-91.884S67.409,26.253,118.146,26.253z"
   id="path4238" />
	<path
   style="fill:#285050;fill-opacity:1"
   d="M83.143,104.993h70.007c7.246,0,13.126,5.881,13.126,13.126c0,7.263-5.881,13.135-13.126,13.135   H83.143c-7.246,0-13.126-5.872-13.126-13.135C70.017,110.873,75.897,104.993,83.143,104.993z"
   id="path4240" />
</g>















</svg>
