<?xml version="1.0" encoding="UTF-8" standalone="no"?>
<!-- Generator: Adobe Illustrator 19.0.0, SVG Export Plug-In . SVG Version: 6.00 Build 0)  -->

<svg
   version="1.1"
   id="Layer_1"
   x="0px"
   y="0px"
   viewBox="0 0 511.999 511.999"
   style="enable-background:new 0 0 511.999 511.999;"
   xml:space="preserve"
   sodipodi:docname="bar-chart-svgrepo-com2.svg"
   inkscape:version="1.2.1 (9c6d41e410, 2022-07-14)"
   xmlns:inkscape="http://www.inkscape.org/namespaces/inkscape"
   xmlns:sodipodi="http://sodipodi.sourceforge.net/DTD/sodipodi-0.dtd"
   xmlns="http://www.w3.org/2000/svg"
   xmlns:svg="http://www.w3.org/2000/svg"><defs
   id="defs15472" /><sodipodi:namedview
   id="namedview15470"
   pagecolor="#ffffff"
   bordercolor="#000000"
   borderopacity="0.25"
   inkscape:showpageshadow="2"
   inkscape:pageopacity="0.0"
   inkscape:pagecheckerboard="0"
   inkscape:deskcolor="#d1d1d1"
   showgrid="false"
   inkscape:zoom="2.0156289"
   inkscape:cx="242.85224"
   inkscape:cy="257.23981"
   inkscape:window-width="1634"
   inkscape:window-height="1268"
   inkscape:window-x="1427"
   inkscape:window-y="339"
   inkscape:window-maximized="0"
   inkscape:current-layer="Layer_1" />








<path
   style="display:inline;fill:#231f20"
   d="m 509.108,409.559 -35.748,-34.31 c -3.747,-3.597 -9.701,-3.475 -13.295,0.273 -3.597,3.747 -3.475,9.7 0.273,13.297 l 18.649,17.899 H 54.272 V 85.217 l 19.221,20.637 c 1.852,1.989 4.364,2.994 6.883,2.994 2.294,0 4.595,-0.835 6.406,-2.522 3.8,-3.539 4.012,-9.489 0.473,-13.291 L 51.77,54.937 c -1.78,-1.91 -4.272,-2.994 -6.881,-2.994 -2.609,0 -5.103,1.085 -6.881,2.994 L 2.522,93.036 c -3.539,3.8 -3.328,9.75 0.473,13.291 3.8,3.54 9.751,3.329 13.291,-0.471 L 35.464,85.264 v 330.86 c 0,5.193 4.21,9.403 9.403,9.403 h 434.582 l -19.113,18.343 c -3.747,3.597 -3.87,9.549 -0.273,13.297 1.845,1.924 4.314,2.892 6.785,2.892 2.341,0 4.686,-0.87 6.51,-2.619 l 35.748,-34.309 c 1.848,-1.774 2.893,-4.223 2.893,-6.785 0,-2.563 -1.043,-5.013 -2.891,-6.787 z"
   id="path15437"
   sodipodi:nodetypes="ccccccccscccscccccsscccsccsc" />











<circle
   style="fill:#231eff;fill-opacity:1;stroke:none;stroke-width:21.906;stroke-linecap:round;stroke-linejoin:round;stroke-dasharray:none;stroke-opacity:1"
   id="path18538"
   cx="140.15477"
   cy="162.97643"
   r="29.519321" /><circle
   style="fill:#231eff;fill-opacity:1;stroke:none;stroke-width:21.906;stroke-linecap:round;stroke-linejoin:round;stroke-dasharray:none;stroke-opacity:1"
   id="path18538-5"
   cx="230.20108"
   cy="271.87543"
   r="29.519321"
   inkscape:transform-center-x="3.4728615"
   inkscape:transform-center-y="56.55803" /><circle
   style="fill:#231eff;fill-opacity:1;stroke:none;stroke-width:21.906;stroke-linecap:round;stroke-linejoin:round;stroke-dasharray:none;stroke-opacity:1"
   id="path18538-5-0"
   cx="344.80551"
   cy="238.13907"
   r="29.519321"
   inkscape:transform-center-x="3.4728615"
   inkscape:transform-center-y="56.55803" /><circle
   style="fill:#231eff;fill-opacity:1;stroke:none;stroke-width:21.906;stroke-linecap:round;stroke-linejoin:round;stroke-dasharray:none;stroke-opacity:1"
   id="path18538-5-0-8"
   cx="377.05353"
   cy="337.36368"
   r="29.519321"
   inkscape:transform-center-x="3.4728615"
   inkscape:transform-center-y="56.55803" /></svg>
