<?xml version="1.0" encoding="UTF-8" standalone="no"?>
<!-- Generator: Adobe Illustrator 18.0.0, SVG Export Plug-In . SVG Version: 6.00 Build 0)  -->

<svg
   version="1.1"
   id="Capa_1"
   x="0px"
   y="0px"
   viewBox="0 0 238.002 238.002"
   style="enable-background:new 0 0 238.002 238.002;"
   xml:space="preserve"
   sodipodi:docname="iconGoogleEarth.svg"
   inkscape:version="1.2.1 (9c6d41e410, 2022-07-14)"
   xmlns:inkscape="http://www.inkscape.org/namespaces/inkscape"
   xmlns:sodipodi="http://sodipodi.sourceforge.net/DTD/sodipodi-0.dtd"
   xmlns="http://www.w3.org/2000/svg"
   xmlns:svg="http://www.w3.org/2000/svg"><defs
   id="defs21359" /><sodipodi:namedview
   id="namedview21357"
   pagecolor="#ffffff"
   bordercolor="#000000"
   borderopacity="0.25"
   inkscape:showpageshadow="2"
   inkscape:pageopacity="0.0"
   inkscape:pagecheckerboard="0"
   inkscape:deskcolor="#d1d1d1"
   showgrid="false"
   inkscape:zoom="0.76280732"
   inkscape:cx="-19.664206"
   inkscape:cy="429.33516"
   inkscape:window-width="1181"
   inkscape:window-height="1082"
   inkscape:window-x="406"
   inkscape:window-y="640"
   inkscape:window-maximized="0"
   inkscape:current-layer="Capa_1" />
<path
   d="M119.001,0.001C53.279,0.001,0,53.279,0,119.001s53.279,119,119.001,119s119.001-53.278,119.001-119  S184.723,0.001,119.001,0.001z M131.247,218.789c-18.16,2.236-36.922-2.223-53.465-8.285c-0.807-2.82-2.156-5.485-2.15-8.531  c0.003-5.396,3.529-9.068,8.969-9.31c5.32-0.238,10.453,0.99,15.606,1.954c41.711,7.801,74.961,3.029,87.272-2.772  C179.401,202.838,151.809,216.257,131.247,218.789z M209.048,163.138c0,0-28.672,19.113-115.811-5.025  c-14.681-4.067-29.28-8.338-43.684-13.271c-5.891-2.016-20.17-8.192-27.146,1.401c-7.988-24.075-2.113-43.425-2.113-43.425  s1.188-1.632,1.511-2.011c7.329-8.594,16.984-10.806,27.711-10.188c15.479,0.888,29.159,7.085,42.342,14.552  c20.646,11.682,40.563,24.916,62.474,34.05c49.171,20.499,58.646,9.143,60.918,7.533  C212.501,157.157,209.048,163.138,209.048,163.138z M216.412,96.097c1.495,7.136,2.623,14.319,2.65,21.635  c-3.38,5.798-7.163,8.254-14.694,5.481c-12.876-4.74-27.316-15.514-53.97-37.191c-13.676-11.12-28.719-20.321-44.38-28.431  C91.534,50.093,76.07,47.524,59.92,48.911c-4.011,0.345-8.523,0.819-14.56,2.924c9.876-11.026,21.816-19.124,35.409-24.856  c0.714-0.303,44.872-6.476,78.135,30.395c29.098,32.253,45.875,39.435,48.653,40.029C209.915,97.909,213.6,98.131,216.412,96.097z"
   id="path21324"
   style="fill:#000050;fill-opacity:1" />















</svg>
