<?xml version="1.0" encoding="UTF-8" standalone="no"?>
<!-- Generator: Adobe Illustrator 19.0.0, SVG Export Plug-In . SVG Version: 6.00 Build 0)  -->

<svg
   version="1.1"
   id="Layer_1"
   x="0px"
   y="0px"
   viewBox="0 0 511.999 511.999"
   style="enable-background:new 0 0 511.999 511.999;"
   xml:space="preserve"
   sodipodi:docname="iconViewRotate90.svg"
   inkscape:version="1.2.1 (9c6d41e410, 2022-07-14)"
   xmlns:inkscape="http://www.inkscape.org/namespaces/inkscape"
   xmlns:sodipodi="http://sodipodi.sourceforge.net/DTD/sodipodi-0.dtd"
   xmlns="http://www.w3.org/2000/svg"
   xmlns:svg="http://www.w3.org/2000/svg"><defs
   id="defs15472" /><sodipodi:namedview
   id="namedview15470"
   pagecolor="#ffffff"
   bordercolor="#000000"
   borderopacity="0.25"
   inkscape:showpageshadow="2"
   inkscape:pageopacity="0.0"
   inkscape:pagecheckerboard="0"
   inkscape:deskcolor="#d1d1d1"
   showgrid="false"
   inkscape:zoom="0.71263243"
   inkscape:cx="-104.54197"
   inkscape:cy="480.61242"
   inkscape:window-width="1634"
   inkscape:window-height="1268"
   inkscape:window-x="1427"
   inkscape:window-y="339"
   inkscape:window-maximized="0"
   inkscape:current-layer="Layer_1" />








<path
   style="display:inline;fill:#231f20"
   d="m 509.108,409.559 -35.748,-34.31 c -3.747,-3.597 -9.701,-3.475 -13.295,0.273 -3.597,3.747 -3.475,9.7 0.273,13.297 l 18.649,17.899 H 54.272 V 85.217 l 19.221,20.637 c 1.852,1.989 4.364,2.994 6.883,2.994 2.294,0 4.595,-0.835 6.406,-2.522 3.8,-3.539 4.012,-9.489 0.473,-13.291 L 51.77,54.937 c -1.78,-1.91 -4.272,-2.994 -6.881,-2.994 -2.609,0 -5.103,1.085 -6.881,2.994 L 2.522,93.036 c -3.539,3.8 -3.328,9.75 0.473,13.291 3.8,3.54 9.751,3.329 13.291,-0.471 L 35.464,85.264 v 330.86 c 0,5.193 4.21,9.403 9.403,9.403 h 434.582 l -19.113,18.343 c -3.747,3.597 -3.87,9.549 -0.273,13.297 1.845,1.924 4.314,2.892 6.785,2.892 2.341,0 4.686,-0.87 6.51,-2.619 l 35.748,-34.309 c 1.848,-1.774 2.893,-4.223 2.893,-6.785 0,-2.563 -1.043,-5.013 -2.891,-6.787 z"
   id="path15437"
   sodipodi:nodetypes="ccccccccscccscccccsscccsccsc" />











<g
   aria-label="90"
   id="text1469"
   style="font-size:133.333px;-inkscape-font-specification:'sans-serif, Normal';stroke-linecap:round;stroke-linejoin:round"><path
     d="m 350.31133,151.27908 q 0,12.69528 -2.92968,23.04682 -2.86458,10.35154 -8.72394,17.64318 -5.92446,7.42186 -14.84371,11.45831 -8.91925,4.03645 -20.96349,4.03645 -3.3854,0 -6.38019,-0.39063 -2.99478,-0.32552 -5.33853,-1.10677 v -12.43486 h 0.65104 q 1.88802,0.97656 5.33853,1.88802 3.45051,0.84635 7.68227,0.84635 14.38799,0 22.52599,-8.59373 8.2031,-8.65883 9.50518,-23.82806 -6.05467,3.64582 -11.3932,5.20832 -5.33853,1.56249 -11.65361,1.56249 -5.98957,0 -10.87237,-1.17187 -4.8177,-1.17187 -9.7005,-4.55728 -5.72915,-3.97134 -8.65883,-10.09112 -2.86458,-6.11978 -2.86458,-14.6484 0,-14.84371 9.7656,-24.15358 9.7656,-9.30988 23.82807,-9.30988 7.03123,0 13.0208,2.21354 5.98957,2.14843 10.48174,6.5104 5.53384,5.40363 8.52863,13.93226 2.99478,8.46352 2.99478,21.94004 z m -13.15101,-2.79947 q 0,-10.09112 -2.08333,-16.21089 -2.08332,-6.11978 -5.72915,-9.50519 -3.05989,-2.92968 -6.5755,-4.16665 -3.51562,-1.30208 -7.61717,-1.30208 -9.37498,0 -14.84371,5.85936 -5.40363,5.85936 -5.40363,16.47131 0,6.18488 1.7578,10.09112 1.75781,3.90624 5.92447,6.83592 2.92968,2.01822 6.44529,2.73437 3.51562,0.65104 7.81248,0.65104 5.07812,0 10.28644,-1.36719 5.20832,-1.36718 9.7656,-3.97134 0.0651,-1.36719 0.1302,-2.66927 0.13021,-1.36718 0.13021,-3.45051 z"
     id="path1744" /><path
     d="m 435.07674,157.07334 q 0,26.1067 -8.2031,38.34626 -8.138,12.17444 -25.32546,12.17444 -17.44787,0 -25.52077,-12.36976 -8.00779,-12.36976 -8.00779,-38.02073 0,-25.84629 8.138,-38.15095 8.138,-12.36976 25.39056,-12.36976 17.44787,0 25.45566,12.56508 8.0729,12.49996 8.0729,37.82542 z m -17.12235,29.55722 q 2.27864,-5.27343 3.05989,-12.36976 0.84635,-7.16144 0.84635,-17.18746 0,-9.89581 -0.84635,-17.18746 -0.78125,-7.29164 -3.125,-12.36976 -2.27864,-5.013 -6.24998,-7.55206 -3.90624,-2.53906 -10.09112,-2.53906 -6.11978,0 -10.15622,2.53906 -3.97135,2.53906 -6.31509,7.68227 -2.21354,4.8177 -3.05989,12.56507 -0.78125,7.74738 -0.78125,16.99215 0,10.15622 0.71615,16.99214 0.71614,6.83592 3.05988,12.23955 2.14844,5.07812 6.05468,7.74738 3.97134,2.66926 10.48174,2.66926 6.11978,0 10.15622,-2.53905 4.03645,-2.53906 6.24999,-7.68227 z"
     id="path1746" /></g><g
   id="g1742"
   transform="matrix(1.4555078,0,0,1.3015893,-144.359,-52.121101)"
   style="stroke:#000000;stroke-opacity:1"><path
     style="fill:none;fill-opacity:1;stroke:#000000;stroke-width:10;stroke-linecap:round;stroke-linejoin:round;stroke-dasharray:none;stroke-opacity:1"
     d="m 314.32754,310.81942 c 0,0 -2.57574,-27.20729 -7.01624,-39.99257 -5.49314,-15.81611 -12.73448,-31.68619 -23.85521,-44.20231 -12.15339,-13.67836 -27.95082,-24.68873 -44.90394,-31.57307 -16.45844,-6.68346 -52.6218,-8.41949 -52.6218,-8.41949"
     id="path1579"
     sodipodi:nodetypes="csssc" /><path
     style="fill:none;fill-opacity:1;stroke:#000000;stroke-width:10;stroke-linecap:round;stroke-linejoin:round;stroke-dasharray:none;stroke-opacity:1"
     d="m 210.48719,162.77676 -28.06496,23.85522 28.06496,28.06496"
     id="path1738" /></g></svg>
