<?xml version="1.0" encoding="UTF-8" standalone="no"?>
<svg
   version="1.1"
   viewBox="0 0 512 512"
   enable-background="new 0 0 512 512"
   id="svg80"
   sodipodi:docname="iconViewXY.svg"
   inkscape:version="1.2.1 (9c6d41e410, 2022-07-14)"
   xmlns:inkscape="http://www.inkscape.org/namespaces/inkscape"
   xmlns:sodipodi="http://sodipodi.sourceforge.net/DTD/sodipodi-0.dtd"
   xmlns="http://www.w3.org/2000/svg"
   xmlns:svg="http://www.w3.org/2000/svg">
  <defs
     id="defs84">
    <rect
       x="20.938656"
       y="35.894839"
       width="29.912366"
       height="38.886076"
       id="rect2333" />
    <rect
       x="234.31353"
       y="304.10906"
       width="195.42746"
       height="151.55599"
       id="rect2327" />
    <inkscape:perspective
       sodipodi:type="inkscape:persp3d"
       inkscape:vp_x="0 : 256 : 1"
       inkscape:vp_y="0 : 1000 : 0"
       inkscape:vp_z="512 : 256 : 1"
       inkscape:persp3d-origin="256 : 170.66667 : 1"
       id="perspective2257" />
  </defs>
  <sodipodi:namedview
     id="namedview82"
     pagecolor="#ffffff"
     bordercolor="#000000"
     borderopacity="0.25"
     inkscape:showpageshadow="2"
     inkscape:pageopacity="0.0"
     inkscape:pagecheckerboard="0"
     inkscape:deskcolor="#d1d1d1"
     showgrid="false"
     inkscape:zoom="1.0029297"
     inkscape:cx="-82.259006"
     inkscape:cy="298.62512"
     inkscape:window-width="1528"
     inkscape:window-height="1268"
     inkscape:window-x="2117"
     inkscape:window-y="356"
     inkscape:window-maximized="0"
     inkscape:current-layer="svg80" />
  <g
     aria-label="X"
     transform="matrix(27.303591,0,0,26.370937,-6171.7976,-7873.6501)"
     id="text2325"
     style="font-size:14.9069px;font-family:Arial;-inkscape-font-specification:'Arial, Normal';white-space:pre;shape-inside:url(#rect2327);stroke-width:113.8;paint-order:markers fill stroke">
    <path
       d="m 234.37996,317.53683 4.12706,-5.56097 -3.63938,-5.10969 h 1.68139 l 1.93615,2.73681 q 0.60414,0.85162 0.8589,1.31018 0.35666,-0.5823 0.84433,-1.21555 l 2.14724,-2.83144 h 1.53581 l -3.74856,5.02962 4.03972,5.64104 h -1.74691 l -2.68586,-3.80679 q -0.22564,-0.32754 -0.46584,-0.71332 -0.35666,0.5823 -0.50951,0.80067 l -2.67859,3.71944 z"
       id="path2627" />
  </g>
  <g
     aria-label="Y"
     transform="matrix(32.542465,0,0,27.856622,-661.63723,-1052.6329)"
     id="text2331"
     style="font-size:13.2853px;-inkscape-font-specification:'sans-serif, Normal';white-space:pre;shape-inside:url(#rect2333);stroke-width:113.8;paint-order:markers fill stroke">
    <path
       d="m 29.074105,38.356026 -3.399169,5.423101 v 4.235986 h -1.284419 v -4.09976 l -3.412142,-5.559327 h 1.420645 l 2.640194,4.320317 2.666142,-4.320317 z"
       id="path2630" />
  </g>
</svg>
