<?xml version="1.0" ?><svg width="60px" height="60px" viewBox="0 0 60 60" xmlns="http://www.w3.org/2000/svg"><defs><style>
      .cls-1 {
        fill: #8b695c;
        fill-rule: evenodd;
      }
    </style></defs><path class="cls-1" d="M1080,810a30,30,0,1,1-30,30A30,30,0,0,1,1080,810Zm-15.99,38.742a1.216,1.216,0,0,0,.77,1.1,1.459,1.459,0,0,0,1.47-.082l13.14-8.683a1.385,1.385,0,0,0,.63-1.157,1.362,1.362,0,0,0-.64-1.154l-13.17-8.55a1.455,1.455,0,0,0-1.47-.068,1.283,1.283,0,0,0-.76,1.165Zm18,0a1.216,1.216,0,0,0,.77,1.1,1.459,1.459,0,0,0,1.47-.082l13.14-8.683a1.385,1.385,0,0,0,.63-1.157,1.362,1.362,0,0,0-.64-1.154l-13.17-8.55a1.455,1.455,0,0,0-1.47-.068,1.283,1.283,0,0,0-.76,1.165Z" id="forward" transform="translate(-1050 -810)"/></svg>