<?xml version="1.0" encoding="iso-8859-1"?>
<!-- Generator: Adobe Illustrator 19.0.0, SVG Export Plug-In . SVG Version: 6.00 Build 0)  -->
<svg version="1.1" id="Layer_1" xmlns="http://www.w3.org/2000/svg" xmlns:xlink="http://www.w3.org/1999/xlink" x="0px" y="0px"
	 viewBox="0 0 477.5 477.5" style="enable-background:new 0 0 477.5 477.5;" xml:space="preserve">
<g>
	<g>
		<path style="fill:#CED2D4;" d="M288.75,90c49.7,0,90,40.3,90,90v40h-5h-135V90H288.75z"/>
		<path style="fill:#CED2D4;" d="M238.75,90v130h-140v-40c0-49.7,40.3-90,90-90H238.75z"/>
		<path style="fill:#E7ECED;" d="M378.75,220v160c0,49.7-40.3,90-90,90h-100c-49.7,0-90-40.3-90-90V220h140h135H378.75z"/>
	</g>
	<g>
		<path style="fill:#231F20;" d="M288.75,82.5h-100c-53.762,0-97.5,43.738-97.5,97.5v200c0,53.762,43.738,97.5,97.5,97.5h100
			c53.762,0,97.5-43.738,97.5-97.5V180C386.25,126.238,342.512,82.5,288.75,82.5z M371.25,180v32.5h-125v-115h42.5
			C334.24,97.5,371.25,134.509,371.25,180z M188.75,97.5h42.5v115h-125V180C106.25,134.509,143.26,97.5,188.75,97.5z M288.75,462.5
			h-100c-45.49,0-82.5-37.009-82.5-82.5V227.5h265V380C371.25,425.491,334.24,462.5,288.75,462.5z"/>
		<path style="fill:#231F20;" d="M246.25,40.102c0.128-2.602,1.442-2.602,2.5-2.602h60c7.034,0,17.5-4.661,17.5-17.5V0h-15v20
			c0,1.058,0,2.373-2.602,2.5H248.75c-12.84,0-17.5,10.465-17.5,17.5v30h15V40.102z"/>
	</g>
</g>
<g>
</g>
<g>
</g>
<g>
</g>
<g>
</g>
<g>
</g>
<g>
</g>
<g>
</g>
<g>
</g>
<g>
</g>
<g>
</g>
<g>
</g>
<g>
</g>
<g>
</g>
<g>
</g>
<g>
</g>
</svg>
