<?xml version="1.0" ?><svg width="60px" height="60px" viewBox="0 0 60 60" xmlns="http://www.w3.org/2000/svg"><defs><style>
      .cls-1 {
        fill: #65727f;
        fill-rule: evenodd;
      }
    </style></defs><path class="cls-1" d="M800,810a30,30,0,1,0,30,30A30,30,0,0,0,800,810Zm10.5,20h-3a1.59,1.59,0,0,0-1.5,1.667v16.666A1.59,1.59,0,0,0,807.5,850h3a1.59,1.59,0,0,0,1.5-1.667V831.667A1.59,1.59,0,0,0,810.5,830Zm-22.486,18.741a1.209,1.209,0,0,0,.763,1.1,1.466,1.466,0,0,0,1.474-.082l13.14-8.683a1.371,1.371,0,0,0-.009-2.311l-13.176-8.55a1.456,1.456,0,0,0-1.471-.068,1.289,1.289,0,0,0-.754,1.165Z" id="next" transform="translate(-770 -810)"/></svg>