<?xml version="1.0" encoding="UTF-8" standalone="no"?>
<svg
   width="60px"
   height="60px"
   viewBox="0 0 60 60"
   version="1.1"
   id="svg16"
   sodipodi:docname="iconReloadPre.svg"
   xml:space="preserve"
   inkscape:version="1.2.1 (9c6d41e410, 2022-07-14)"
   xmlns:inkscape="http://www.inkscape.org/namespaces/inkscape"
   xmlns:sodipodi="http://sodipodi.sourceforge.net/DTD/sodipodi-0.dtd"
   xmlns="http://www.w3.org/2000/svg"
   xmlns:svg="http://www.w3.org/2000/svg"><sodipodi:namedview
     id="namedview18"
     pagecolor="#ffffff"
     bordercolor="#000000"
     borderopacity="0.25"
     inkscape:showpageshadow="2"
     inkscape:pageopacity="0.0"
     inkscape:pagecheckerboard="0"
     inkscape:deskcolor="#d1d1d1"
     showgrid="false"
     inkscape:zoom="8.5583333"
     inkscape:cx="66.368062"
     inkscape:cy="62.921129"
     inkscape:window-width="1975"
     inkscape:window-height="1604"
     inkscape:window-x="419"
     inkscape:window-y="135"
     inkscape:window-maximized="0"
     inkscape:current-layer="svg16" /><defs
     id="defs13"><style
       id="style11">
      .cls-1 {
        fill: #5b75a0;
        fill-rule: evenodd;
      }
    </style></defs><path
     class="cls-1"
     d="M970,600a30,30,0,1,1-34.009-29.7v8.083a22.021,22.021,0,1,0,19.508,6.092l-7.815,7.818a1,1,0,0,1-1.707-.707V572a2,2,0,0,1,2-2h19.582a1,1,0,0,1,.707,1.707l-7.077,7.077A29.874,29.874,0,0,1,970,600Z"
     id="update"
     transform="translate(-910 -570)" /><g
     id="g172"
     transform="matrix(0.08511454,0,0,0.08515835,16.374712,16.272462)"><polygon
       style="fill:#ff9d49"
       points="142.441,464.524 87.044,424.954 345.817,150.364 393.29,213.665 "
       id="polygon143" /><polygon
       style="fill:#ffcc75"
       points="87.044,424.954 47.473,369.557 298.333,118.708 353.73,158.277 "
       id="polygon145" /><polygon
       style="fill:#bd1515"
       points="440.78,166.185 377.475,118.708 464.522,47.486 512,94.965 "
       id="polygon147" /><polygon
       style="fill:#f2484b"
       points="385.382,126.615 345.817,71.224 417.038,0.002 464.516,47.482 "
       id="polygon149" /><g
       id="g155">
	
		<rect
   x="335.974"
   y="75.292"
   transform="matrix(-0.7071,0.7071,-0.7071,-0.7071,731.5841,-18.1559)"
   style="fill:#082947"
   width="67.156998"
   height="134.29201"
   id="rect151" />
	<polygon
   style="fill:#082947"
   points="0,511.998 23.736,440.776 63.305,448.692 71.22,488.261 "
   id="polygon153" />
</g><polygon
       style="fill:#f2ebd9"
       points="23.736,440.776 71.22,488.261 142.441,464.524 47.473,369.557 "
       id="polygon157" /></g></svg>
