<?xml version="1.0" encoding="iso-8859-1"?>
<!-- Generator: Adobe Illustrator 19.0.0, SVG Export Plug-In . SVG Version: 6.00 Build 0)  -->
<svg version="1.1" id="Layer_1" xmlns="http://www.w3.org/2000/svg" xmlns:xlink="http://www.w3.org/1999/xlink" x="0px" y="0px"
	 viewBox="0 0 473.654 473.654" style="enable-background:new 0 0 473.654 473.654;" xml:space="preserve">
<circle style="fill:#EDC92C;" cx="236.827" cy="236.827" r="236.827"/>
<path style="fill:#4B4A4B;" d="M413.313,228.394c-83.628-101.956-170.596-97.771-174.81-97.491
	c-4.244-0.277-91.182-4.461-174.818,97.491c0.856-0.856-5.871,6.825-5.609,16.42l0,0c0,0,0,0,0,0.03
	c-0.262,9.57,6.466,17.232,5.609,16.383c83.636,101.956,170.573,97.771,174.818,97.506c4.214,0.262,91.182,4.446,174.81-97.506
	c-0.849,0.853,5.871-6.813,5.609-16.383c0-0.03,0-0.03,0-0.03l0,0C419.188,235.219,412.468,227.542,413.313,228.394z"/>
<path style="fill:#FFFFFF;" d="M396.114,230.014c-75.405-91.922-153.812-88.153-157.612-87.899
	c-3.826-0.251-82.203-4.024-157.608,87.899c0.767-0.77-5.295,6.155-5.063,14.801l0,0c0,0,0,0,0,0.026
	c-0.236,8.631,5.83,15.538,5.063,14.771c75.405,91.922,153.782,88.149,157.608,87.914c3.799,0.236,82.203,4.009,157.608-87.914
	c-0.767,0.767,5.295-6.144,5.056-14.771c0-0.026,0-0.026,0-0.026l0,0C401.41,236.165,395.348,229.243,396.114,230.014z"/>
<circle style="fill:#1F92D0;" cx="239.968" cy="245.391" r="82.271"/>
<circle style="fill:#36A5DD;" cx="239.968" cy="245.391" r="74.791"/>
<circle style="fill:#4B4A4B;" cx="239.968" cy="245.391" r="54.224"/>
<circle style="fill:#FFFFFF;" cx="261.471" cy="222.019" r="22.793"/>
<g>
</g>
<g>
</g>
<g>
</g>
<g>
</g>
<g>
</g>
<g>
</g>
<g>
</g>
<g>
</g>
<g>
</g>
<g>
</g>
<g>
</g>
<g>
</g>
<g>
</g>
<g>
</g>
<g>
</g>
</svg>
