<?xml version="1.0" encoding="iso-8859-1"?>
<!-- Generator: Adobe Illustrator 19.0.0, SVG Export Plug-In . SVG Version: 6.00 Build 0)  -->
<svg xmlns="http://www.w3.org/2000/svg" xmlns:xlink="http://www.w3.org/1999/xlink" version="1.1" id="Layer_1" x="0px" y="0px" viewBox="0 0 334.431 334.431" style="enable-background:new 0 0 334.431 334.431;" xml:space="preserve" width="512" height="512">
<g>
	<path style="fill:#DCDBCD;" d="M224.221,0H110.209c-8.284,0-15,6.716-15,15v47.746c0,8.284,6.716,15,15,15h114.012   c8.284,0,15-6.716,15-15V15C239.221,6.716,232.505,0,224.221,0z"/>
	<path style="fill:#B7B7AC;" d="M167.215,0h-57.006c-8.284,0-15,6.716-15,15v47.746c0,8.284,6.716,15,15,15h57.006V0z"/>
	<g>
		<path style="fill:#DCDBCD;" d="M50.236,72.612v246.819c0,8.284,6.716,15,15,15h203.959c8.284,0,15-6.716,15-15V72.612H50.236z"/>
		<path style="fill:#B7B7AC;" d="M50.236,72.612v246.819c0,8.284,6.716,15,15,15h101.979V72.612H50.236z"/>
	</g>
	<g>
		<g>
			<g>
				<path style="fill:#938783;" d="M120.215,270.405c-8.284,0-15-6.716-15-15V146.557c0-8.284,6.716-15,15-15s15,6.716,15,15      v108.848C135.215,263.689,128.5,270.405,120.215,270.405z"/>
			</g>
			<g>
				<path style="fill:#A99B96;" d="M167.215,270.405c-8.284,0-15-6.716-15-15V146.557c0-8.284,6.716-15,15-15s15,6.716,15,15      v108.848C182.215,263.689,175.5,270.405,167.215,270.405z"/>
			</g>
			<g>
				<path style="fill:#938783;" d="M167.215,270.405c-8.284,0-15-6.716-15-15V146.557c0-8.284,6.716-15,15-15V270.405z"/>
			</g>
			<g>
				<path style="fill:#A99B96;" d="M214.215,270.405c-8.284,0-15-6.716-15-15V146.557c0-8.284,6.716-15,15-15s15,6.716,15,15      v108.848C229.215,263.689,222.5,270.405,214.215,270.405z"/>
			</g>
		</g>
	</g>
	<path style="fill:#A99B96;" d="M286.02,83.479H48.411c-8.284,0-15-6.716-15-15s6.716-15,15-15H286.02c8.284,0,15,6.716,15,15   S294.304,83.479,286.02,83.479z"/>
	<path style="fill:#938783;" d="M167.215,83.479H48.411c-8.284,0-15-6.716-15-15s6.716-15,15-15h118.804V83.479z"/>
</g>















</svg>
