<?xml version="1.0" encoding="UTF-8" standalone="no"?>
<!-- Generator: Adobe Illustrator 18.0.0, SVG Export Plug-In . SVG Version: 6.00 Build 0)  -->

<svg
   version="1.1"
   id="Capa_1"
   x="0px"
   y="0px"
   viewBox="0 0 297 297"
   style="enable-background:new 0 0 297 297;"
   xml:space="preserve"
   sodipodi:docname="iconPinFixed.svg"
   inkscape:version="1.2.1 (9c6d41e410, 2022-07-14)"
   xmlns:inkscape="http://www.inkscape.org/namespaces/inkscape"
   xmlns:sodipodi="http://sodipodi.sourceforge.net/DTD/sodipodi-0.dtd"
   xmlns="http://www.w3.org/2000/svg"
   xmlns:svg="http://www.w3.org/2000/svg"><defs
   id="defs28640" /><sodipodi:namedview
   id="namedview28638"
   pagecolor="#ffffff"
   bordercolor="#000000"
   borderopacity="0.25"
   inkscape:showpageshadow="2"
   inkscape:pageopacity="0.0"
   inkscape:pagecheckerboard="0"
   inkscape:deskcolor="#d1d1d1"
   showgrid="false"
   inkscape:zoom="2.6868687"
   inkscape:cx="148.68609"
   inkscape:cy="148.5"
   inkscape:window-width="3840"
   inkscape:window-height="2097"
   inkscape:window-x="-8"
   inkscape:window-y="-8"
   inkscape:window-maximized="1"
   inkscape:current-layer="Capa_1" />
<g
   id="g28605">
	<path
   d="M123.419,157.089l14.521,130.692c0.583,5.248,5.02,9.219,10.301,9.219c5.281,0,9.717-3.971,10.3-9.219l14.521-130.692   H123.419z"
   id="path28601" />
	<path
   d="M232.786,96.39c0-2.243-0.722-5.321-2.067-7.116l-22.884-34.08v-44.83C207.835,4.641,203.194,0,197.471,0H99.156   c-5.723,0-10.363,4.641-10.363,10.363v44.83l-22.506,34.08c-1.346,1.795-2.073,4.873-2.073,7.116v36.344   c0,5.724,4.641,10.364,10.364,10.364h147.844c5.724,0,10.364-4.641,10.364-10.364V96.39z"
   id="path28603" />
</g>















</svg>
