<?xml version="1.0" encoding="UTF-8" standalone="no"?>
<!-- Generator: Adobe Illustrator 18.0.0, SVG Export Plug-In . SVG Version: 6.00 Build 0)  -->

<svg
   version="1.1"
   id="Capa_1"
   x="0px"
   y="0px"
   viewBox="0 0 297 297"
   style="enable-background:new 0 0 297 297;"
   xml:space="preserve"
   sodipodi:docname="iconPinFree.svg"
   inkscape:version="1.2.1 (9c6d41e410, 2022-07-14)"
   xmlns:inkscape="http://www.inkscape.org/namespaces/inkscape"
   xmlns:sodipodi="http://sodipodi.sourceforge.net/DTD/sodipodi-0.dtd"
   xmlns="http://www.w3.org/2000/svg"
   xmlns:svg="http://www.w3.org/2000/svg"><defs
   id="defs28571" /><sodipodi:namedview
   id="namedview28569"
   pagecolor="#ffffff"
   bordercolor="#000000"
   borderopacity="0.25"
   inkscape:showpageshadow="2"
   inkscape:pageopacity="0.0"
   inkscape:pagecheckerboard="0"
   inkscape:deskcolor="#d1d1d1"
   showgrid="false"
   inkscape:zoom="2.6868687"
   inkscape:cx="148.87218"
   inkscape:cy="148.87218"
   inkscape:window-width="2363"
   inkscape:window-height="1001"
   inkscape:window-x="353"
   inkscape:window-y="441"
   inkscape:window-maximized="0"
   inkscape:current-layer="Capa_1" />
<g
   id="g28536"
   transform="rotate(90,148.5,148.5)">
	<path
   d="m 123.419,157.089 14.521,130.692 c 0.583,5.248 5.02,9.219 10.301,9.219 5.281,0 9.717,-3.971 10.3,-9.219 l 14.521,-130.692 z"
   id="path28532" />
	<path
   d="m 232.786,96.39 c 0,-2.243 -0.722,-5.321 -2.067,-7.116 L 207.835,55.194 V 10.364 C 207.835,4.641 203.194,0 197.471,0 H 99.156 C 93.433,0 88.793,4.641 88.793,10.363 v 44.83 l -22.506,34.08 c -1.346,1.795 -2.073,4.873 -2.073,7.116 v 36.344 c 0,5.724 4.641,10.364 10.364,10.364 h 147.844 c 5.724,0 10.364,-4.641 10.364,-10.364 V 96.39 Z"
   id="path28534" />
</g>















</svg>
